<svg width="683" height="683" viewBox="0 0 683 683" fill="current" xmlns="http://www.w3.org/2000/svg">
<path d="M60.2667 2.56808C45.7333 6.43475 35.3333 12.4348 24 23.9014C12.4 35.3681 6.53333 45.6348 2.66667 60.7014C0.133333 70.4348 0 75.7681 0 157.235C0 238.701 0.133333 244.035 2.66667 253.768C6.53333 268.835 12.4 279.101 24 290.568C35.4667 302.168 45.7333 308.035 60.8 311.901C70.5333 314.435 75.8667 314.568 157.333 314.568C238.8 314.568 244.133 314.435 253.867 311.901C268.933 308.035 279.2 302.168 290.667 290.568C302.267 279.101 308.133 268.835 312 253.768C314.533 244.035 314.667 238.701 314.667 157.235C314.667 75.7681 314.533 70.4348 312 60.7014C308.133 45.6348 302.267 35.3681 290.667 23.9014C279.2 12.3014 268.933 6.43475 253.867 2.56808C244.133 0.0347595 238.933 -0.0985718 156.8 0.0347595C75.7333 0.0347595 69.3333 0.168091 60.2667 2.56808ZM248.933 57.5014C251.867 59.5014 255.733 63.3681 257.467 66.1681L260.667 71.2348V157.235V243.235L257.467 248.301C255.733 251.101 251.867 254.968 248.933 256.968L243.467 260.568H157.467H71.3333L66.2667 257.368C63.4667 255.635 59.6 251.768 57.6 248.835L54 243.368L53.6 160.301C53.3333 103.768 53.7333 75.3681 54.6667 71.7681C56.4 65.3681 64.8 56.5681 70.9333 54.7014C73.6 53.9014 108.667 53.5014 159.467 53.6348L243.467 53.9014L248.933 57.5014Z" fill="current"/>
<path d="M428.267 2.56808C413.733 6.43475 403.333 12.4348 392 23.9014C380.4 35.3681 374.533 45.6348 370.667 60.7014C368.133 70.4348 368 75.7681 368 157.235C368 238.701 368.133 244.035 370.667 253.768C374.533 268.835 380.4 279.101 392 290.568C403.467 302.168 413.733 308.035 428.8 311.901C438.533 314.435 443.867 314.568 525.333 314.568C606.8 314.568 612.133 314.435 621.867 311.901C636.933 308.035 647.2 302.168 658.667 290.568C670.267 279.101 676.133 268.835 680 253.768C682.533 244.035 682.667 238.701 682.667 157.235C682.667 75.7681 682.533 70.4348 680 60.7014C676.133 45.6348 670.267 35.3681 658.667 23.9014C647.2 12.3014 636.933 6.43475 621.867 2.56808C612.133 0.0347595 606.933 -0.0985718 524.8 0.0347595C443.733 0.0347595 437.333 0.168091 428.267 2.56808ZM616.933 57.5014C619.867 59.5014 623.733 63.3681 625.467 66.1681L628.667 71.2348V157.235V243.235L625.467 248.301C623.733 251.101 619.867 254.968 616.933 256.968L611.467 260.568H525.467H439.333L434.267 257.368C431.467 255.635 427.6 251.768 425.6 248.835L422 243.368L421.6 160.301C421.333 103.768 421.733 75.3681 422.667 71.7681C424.4 65.3681 432.8 56.5681 438.933 54.7014C441.6 53.9014 476.667 53.5014 527.467 53.6348L611.467 53.9014L616.933 57.5014Z" fill="current"/>
<path d="M60.2667 370.568C45.7333 374.435 35.3333 380.435 24 391.901C12.4 403.368 6.53333 413.635 2.66667 428.701C0.133333 438.435 0 443.768 0 525.235C0 606.701 0.133333 612.035 2.66667 621.768C6.53333 636.835 12.4 647.101 24 658.568C35.4667 670.168 45.7333 676.035 60.8 679.901C70.5333 682.435 75.8667 682.568 157.333 682.568C238.8 682.568 244.133 682.435 253.867 679.901C268.933 676.035 279.2 670.168 290.667 658.568C302.267 647.101 308.133 636.835 312 621.768C314.533 612.035 314.667 606.701 314.667 525.235C314.667 443.768 314.533 438.435 312 428.701C308.133 413.635 302.267 403.368 290.667 391.901C279.2 380.301 268.933 374.435 253.867 370.568C244.133 368.035 238.933 367.901 156.8 368.035C75.7333 368.035 69.3333 368.168 60.2667 370.568ZM248.933 425.501C251.867 427.501 255.733 431.368 257.467 434.168L260.667 439.235V525.235V611.235L257.467 616.301C255.733 619.101 251.867 622.968 248.933 624.968L243.467 628.568H157.467H71.3333L66.2667 625.368C63.4667 623.635 59.6 619.768 57.6 616.835L54 611.368L53.6 528.301C53.3333 471.768 53.7333 443.368 54.6667 439.768C56.4 433.368 64.8 424.568 70.9333 422.701C73.6 421.901 108.667 421.501 159.467 421.635L243.467 421.901L248.933 425.501Z" fill="current"/>
<path d="M428.267 370.568C413.733 374.435 403.333 380.435 392 391.901C380.4 403.368 374.533 413.635 370.667 428.701C368.133 438.435 368 443.768 368 525.235C368 606.701 368.133 612.035 370.667 621.768C374.533 636.835 380.4 647.101 392 658.568C403.467 670.168 413.733 676.035 428.8 679.901C438.533 682.435 443.867 682.568 525.333 682.568C606.8 682.568 612.133 682.435 621.867 679.901C636.933 676.035 647.2 670.168 658.667 658.568C670.267 647.101 676.133 636.835 680 621.768C682.533 612.035 682.667 606.701 682.667 525.235C682.667 443.768 682.533 438.435 680 428.701C676.133 413.635 670.267 403.368 658.667 391.901C647.2 380.301 636.933 374.435 621.867 370.568C612.133 368.035 606.933 367.901 524.8 368.035C443.733 368.035 437.333 368.168 428.267 370.568ZM616.933 425.501C619.867 427.501 623.733 431.368 625.467 434.168L628.667 439.235V525.235V611.235L625.467 616.301C623.733 619.101 619.867 622.968 616.933 624.968L611.467 628.568H525.467H439.333L434.267 625.368C431.467 623.635 427.6 619.768 425.6 616.835L422 611.368L421.6 528.301C421.333 471.768 421.733 443.368 422.667 439.768C424.4 433.368 432.8 424.568 438.933 422.701C441.6 421.901 476.667 421.501 527.467 421.635L611.467 421.901L616.933 425.501Z" fill="current"/>
</svg>
