<?xml version="1.0" standalone="no"?>
<!DOCTYPE svg PUBLIC "-//W3C//DTD SVG 20010904//EN"
 "http://www.w3.org/TR/2001/REC-SVG-20010904/DTD/svg10.dtd">
<svg version="1.0" xmlns="http://www.w3.org/2000/svg"
 width="512.000000pt" height="512.000000pt" viewBox="0 0 512.000000 512.000000"
 preserveAspectRatio="xMidYMid meet">

<g transform="translate(0.000000,512.000000) scale(0.100000,-0.100000)"
fill="current" stroke="none">
<path d="M3110 4860 c-25 -4 -589 -232 -1254 -506 -1158 -477 -1212 -501
-1262 -547 -31 -28 -65 -72 -81 -105 l-28 -57 -3 -1582 -2 -1581 -109 -4 c-92
-2 -114 -6 -137 -24 -53 -39 -69 -71 -69 -134 0 -63 16 -95 69 -134 l27 -21
2277 -3 c1577 -2 2288 0 2314 8 45 13 95 68 104 115 16 85 -33 166 -112 187
l-44 12 -2 1306 -3 1305 -28 60 c-46 98 -116 159 -217 189 -46 14 -125 16
-542 16 l-488 0 0 598 c0 644 -1 656 -54 746 -68 116 -217 182 -356 156z m88
-2348 l2 -2032 -1200 0 -1200 0 2 1547 3 1547 1180 487 c649 268 1187 487
1195 486 13 -2 15 -237 18 -2035z m1280 -755 l2 -1277 -480 0 -480 0 0 1280 0
1280 478 -2 477 -3 3 -1278z"/>
<path d="M1535 3186 c-67 -29 -105 -106 -91 -181 9 -47 59 -102 104 -115 25
-8 184 -10 474 -8 423 3 437 4 464 24 53 39 69 71 69 134 0 63 -16 95 -69 134
-27 20 -40 21 -474 23 -356 2 -453 0 -477 -11z"/>
<path d="M1535 2546 c-67 -29 -105 -106 -91 -181 9 -47 59 -102 104 -115 25
-8 184 -10 474 -8 423 3 437 4 464 24 53 39 69 71 69 134 0 63 -16 95 -69 134
-27 20 -40 21 -474 23 -356 2 -453 0 -477 -11z"/>
<path d="M1535 1906 c-67 -29 -105 -106 -91 -181 9 -47 59 -102 104 -115 25
-8 184 -10 474 -8 423 3 437 4 464 24 53 39 69 71 69 134 0 63 -16 95 -69 134
-27 20 -40 21 -474 23 -356 2 -453 0 -477 -11z"/>
<path d="M1535 1266 c-67 -29 -105 -106 -91 -181 9 -47 59 -102 104 -115 25
-8 184 -10 474 -8 423 3 437 4 464 24 53 39 69 71 69 134 0 63 -16 95 -69 134
-27 20 -40 21 -474 23 -356 2 -453 0 -477 -11z"/>
</g>
</svg>
