<svg width="259" height="38" viewBox="0 0 259 38" fill="none" xmlns="http://www.w3.org/2000/svg">
<path d="M0.08 14.56C0.08 12.8267 0.4 11.1333 1.04 9.48C1.68 7.8 2.61333 6.28 3.84 4.92C5.06667 3.56 6.56 2.48 8.32 1.68C10.08 0.853332 12.08 0.439998 14.32 0.439998C16.9867 0.439998 19.2933 1.01333 21.24 2.16C23.2133 3.30667 24.68 4.8 25.64 6.64L20.6 10.16C20.1733 9.14667 19.6 8.36 18.88 7.8C18.1867 7.24 17.4133 6.85333 16.56 6.64C15.7333 6.4 14.9333 6.28 14.16 6.28C12.9067 6.28 11.8133 6.53333 10.88 7.04C9.94667 7.52 9.17333 8.17333 8.56 9C7.94667 9.82667 7.49333 10.7467 7.2 11.76C6.90667 12.7733 6.76 13.7867 6.76 14.8C6.76 15.92 6.93333 17 7.28 18.04C7.62667 19.08 8.12 20 8.76 20.8C9.42667 21.6 10.2267 22.24 11.16 22.72C12.0933 23.1733 13.12 23.4 14.24 23.4C15.04 23.4 15.8533 23.2667 16.68 23C17.5067 22.7333 18.2667 22.32 18.96 21.76C19.68 21.1733 20.2267 20.4133 20.6 19.48L25.96 22.64C25.4 24.0267 24.48 25.2133 23.2 26.2C21.92 27.1867 20.4667 27.9467 18.84 28.48C17.24 28.9867 15.6533 29.24 14.08 29.24C12.0267 29.24 10.1333 28.8267 8.4 28C6.69333 27.1467 5.21333 26.0267 3.96 24.64C2.73333 23.2267 1.77333 21.6533 1.08 19.92C0.413333 18.16 0.08 16.3733 0.08 14.56ZM38.6228 29.4C36.8361 29.4 35.2495 29.12 33.8628 28.56C32.4761 27.9733 31.2895 27.1867 30.3028 26.2C29.3428 25.2133 28.6095 24.08 28.1028 22.8C27.5961 21.4933 27.3428 20.1333 27.3428 18.72C27.3428 16.6933 27.7828 14.8533 28.6628 13.2C29.5695 11.52 30.8628 10.1733 32.5428 9.16C34.2228 8.12 36.2495 7.6 38.6228 7.6C40.9961 7.6 43.0095 8.10667 44.6628 9.12C46.3428 10.1333 47.6228 11.4667 48.5028 13.12C49.3828 14.7467 49.8228 16.52 49.8228 18.44C49.8228 18.8133 49.7961 19.1867 49.7428 19.56C49.7161 19.9067 49.6895 20.2133 49.6628 20.48H34.1428C34.2228 21.4133 34.4761 22.2 34.9028 22.84C35.3561 23.48 35.9295 23.9733 36.6228 24.32C37.3161 24.64 38.0495 24.8 38.8228 24.8C39.7828 24.8 40.6761 24.5733 41.5028 24.12C42.3561 23.6667 42.9428 23.0533 43.2628 22.28L48.7028 23.8C48.1695 24.8933 47.4095 25.8667 46.4228 26.72C45.4628 27.5467 44.3161 28.2 42.9828 28.68C41.6761 29.16 40.2228 29.4 38.6228 29.4ZM33.9828 16.56H43.1028C42.9961 15.68 42.7428 14.92 42.3428 14.28C41.9428 13.6133 41.4095 13.1067 40.7428 12.76C40.0761 12.3867 39.3428 12.2 38.5428 12.2C37.7161 12.2 36.9695 12.3867 36.3028 12.76C35.6628 13.1067 35.1428 13.6133 34.7428 14.28C34.3428 14.92 34.0895 15.68 33.9828 16.56ZM66.0034 29.4C64.4301 29.4 63.0568 29.0667 61.8834 28.4C60.7101 27.7067 59.7901 26.7733 59.1234 25.6V37.52H52.7234V8H58.2834V11.4C59.0568 10.2 60.0301 9.26667 61.2034 8.6C62.3768 7.93333 63.7501 7.6 65.3234 7.6C66.7368 7.6 68.0301 7.88 69.2034 8.44C70.4034 9 71.4434 9.77333 72.3234 10.76C73.2034 11.7467 73.8834 12.8933 74.3634 14.2C74.8434 15.5067 75.0834 16.92 75.0834 18.44C75.0834 20.52 74.6968 22.3867 73.9234 24.04C73.1501 25.6933 72.0701 27 70.6834 27.96C69.3234 28.92 67.7634 29.4 66.0034 29.4ZM63.8434 24C64.5368 24 65.1634 23.8533 65.7234 23.56C66.3101 23.24 66.8168 22.8267 67.2434 22.32C67.6701 21.8133 67.9901 21.2267 68.2034 20.56C68.4434 19.8667 68.5634 19.1467 68.5634 18.4C68.5634 17.6267 68.4301 16.92 68.1634 16.28C67.9234 15.64 67.5768 15.08 67.1234 14.6C66.6701 14.0933 66.1368 13.7067 65.5234 13.44C64.9101 13.1733 64.2434 13.04 63.5234 13.04C63.0968 13.04 62.6568 13.1067 62.2034 13.24C61.7768 13.3733 61.3634 13.5733 60.9634 13.84C60.5901 14.08 60.2434 14.3733 59.9234 14.72C59.6034 15.0667 59.3368 15.4667 59.1234 15.92V20.24C59.4168 20.96 59.8034 21.6 60.2834 22.16C60.7634 22.72 61.3101 23.1733 61.9234 23.52C62.5368 23.84 63.1768 24 63.8434 24ZM78.3494 29V8H90.5094C92.056 8 93.296 8.24 94.2294 8.72C95.1894 9.2 95.8827 9.82667 96.3094 10.6C96.736 11.3467 96.9494 12.1733 96.9494 13.08C96.9494 14.28 96.6827 15.3067 96.1494 16.16C95.6427 17.0133 94.8294 17.6933 93.7094 18.2C94.936 18.5467 95.936 19.1333 96.7094 19.96C97.5094 20.76 97.9094 21.8667 97.9094 23.28C97.9094 24.6667 97.576 25.7867 96.9094 26.64C96.2694 27.4667 95.336 28.0667 94.1094 28.44C92.9094 28.8133 91.456 29 89.7494 29H78.3494ZM84.4294 24.72H89.5494C89.9494 24.72 90.3094 24.6267 90.6294 24.44C90.976 24.2533 91.2427 24 91.4294 23.68C91.616 23.3333 91.7094 22.96 91.7094 22.56C91.7094 22.1067 91.616 21.72 91.4294 21.4C91.2694 21.08 91.016 20.8267 90.6694 20.64C90.3494 20.4533 89.9894 20.36 89.5894 20.36H84.4294V24.72ZM84.4294 16.44H88.9094C89.3094 16.44 89.6694 16.3467 89.9894 16.16C90.3094 15.9733 90.5494 15.72 90.7094 15.4C90.8694 15.0533 90.9494 14.68 90.9494 14.28C90.9494 13.72 90.7627 13.2533 90.3894 12.88C90.016 12.48 89.536 12.28 88.9494 12.28H84.4294V16.44ZM101.513 29V8H107.913V20.48L116.033 8H121.873V29H115.473V16.88L107.393 29H101.513ZM136.318 29.4C134.531 29.4 132.945 29.1067 131.558 28.52C130.171 27.9333 128.985 27.1333 127.998 26.12C127.038 25.1067 126.305 23.9467 125.798 22.64C125.291 21.3333 125.038 19.9467 125.038 18.48C125.038 16.56 125.478 14.7733 126.358 13.12C127.265 11.4667 128.558 10.1333 130.238 9.12C131.918 8.10667 133.945 7.6 136.318 7.6C138.718 7.6 140.745 8.12 142.398 9.16C144.078 10.1733 145.331 11.5067 146.158 13.16L139.918 15.04C139.518 14.4 138.998 13.9067 138.358 13.56C137.745 13.2133 137.051 13.04 136.278 13.04C135.398 13.04 134.598 13.2667 133.878 13.72C133.185 14.1733 132.625 14.8 132.198 15.6C131.798 16.4 131.598 17.36 131.598 18.48C131.598 19.5733 131.811 20.5333 132.238 21.36C132.665 22.1867 133.225 22.84 133.918 23.32C134.611 23.7733 135.398 24 136.278 24C136.811 24 137.305 23.92 137.758 23.76C138.238 23.5733 138.665 23.32 139.038 23C139.438 22.68 139.745 22.32 139.958 21.92L146.198 23.84C145.691 24.9067 144.958 25.8667 143.998 26.72C143.065 27.5467 141.958 28.2 140.678 28.68C139.398 29.16 137.945 29.4 136.318 29.4ZM149.051 29V22.48H154.291V29H149.051ZM157.581 34.44V23.24H159.181C159.874 23.24 160.474 22.9733 160.981 22.44C161.514 21.88 161.968 21.0267 162.341 19.88C162.714 18.7067 163.008 17.2133 163.221 15.4C163.434 13.56 163.581 11.36 163.661 8.8L163.901 0.599998H183.581V23.24H187.461V34.44H181.701V29H163.301V34.44H157.581ZM166.861 23.24H177.021V6.36H169.861L169.781 9.72C169.728 12.1467 169.594 14.2533 169.381 16.04C169.194 17.8 168.901 19.28 168.501 20.48C168.101 21.6533 167.554 22.5733 166.861 23.24ZM200.928 29.4C199.141 29.4 197.554 29.12 196.168 28.56C194.781 27.9733 193.594 27.1867 192.608 26.2C191.648 25.2133 190.914 24.08 190.408 22.8C189.901 21.4933 189.648 20.1333 189.648 18.72C189.648 16.6933 190.088 14.8533 190.968 13.2C191.874 11.52 193.168 10.1733 194.848 9.16C196.528 8.12 198.554 7.6 200.928 7.6C203.301 7.6 205.314 8.10667 206.968 9.12C208.648 10.1333 209.928 11.4667 210.808 13.12C211.688 14.7467 212.128 16.52 212.128 18.44C212.128 18.8133 212.101 19.1867 212.048 19.56C212.021 19.9067 211.994 20.2133 211.968 20.48H196.448C196.528 21.4133 196.781 22.2 197.208 22.84C197.661 23.48 198.234 23.9733 198.928 24.32C199.621 24.64 200.354 24.8 201.128 24.8C202.088 24.8 202.981 24.5733 203.808 24.12C204.661 23.6667 205.248 23.0533 205.568 22.28L211.008 23.8C210.474 24.8933 209.714 25.8667 208.728 26.72C207.768 27.5467 206.621 28.2 205.288 28.68C203.981 29.16 202.528 29.4 200.928 29.4ZM196.288 16.56H205.408C205.301 15.68 205.048 14.92 204.648 14.28C204.248 13.6133 203.714 13.1067 203.048 12.76C202.381 12.3867 201.648 12.2 200.848 12.2C200.021 12.2 199.274 12.3867 198.608 12.76C197.968 13.1067 197.448 13.6133 197.048 14.28C196.648 14.92 196.394 15.68 196.288 16.56ZM225.068 29.4C223.281 29.4 221.695 29.1067 220.308 28.52C218.921 27.9333 217.735 27.1333 216.748 26.12C215.788 25.1067 215.055 23.9467 214.548 22.64C214.041 21.3333 213.788 19.9467 213.788 18.48C213.788 16.56 214.228 14.7733 215.108 13.12C216.015 11.4667 217.308 10.1333 218.988 9.12C220.668 8.10667 222.695 7.6 225.068 7.6C227.468 7.6 229.495 8.12 231.148 9.16C232.828 10.1733 234.081 11.5067 234.908 13.16L228.668 15.04C228.268 14.4 227.748 13.9067 227.108 13.56C226.495 13.2133 225.801 13.04 225.028 13.04C224.148 13.04 223.348 13.2667 222.628 13.72C221.935 14.1733 221.375 14.8 220.948 15.6C220.548 16.4 220.348 17.36 220.348 18.48C220.348 19.5733 220.561 20.5333 220.988 21.36C221.415 22.1867 221.975 22.84 222.668 23.32C223.361 23.7733 224.148 24 225.028 24C225.561 24 226.055 23.92 226.508 23.76C226.988 23.5733 227.415 23.32 227.788 23C228.188 22.68 228.495 22.32 228.708 21.92L234.948 23.84C234.441 24.9067 233.708 25.8667 232.748 26.72C231.815 27.5467 230.708 28.2 229.428 28.68C228.148 29.16 226.695 29.4 225.068 29.4ZM237.881 29V8H244.241V15.52H245.761L250.961 8H257.841L250.641 18.08L258.601 29H251.281L245.641 21.08H244.241V29H237.881Z" fill="url(#paint0_linear_107_4)"/>
<defs>
<linearGradient id="paint0_linear_107_4" x1="48.0087" y1="-19.8903" x2="272.75" y2="47.0302" gradientUnits="userSpaceOnUse">
<stop stop-color="#FF4747"/>
<stop offset="1" stop-color="#FF7676"/>
</linearGradient>
</defs>
</svg>
