<svg width="620" height="729" viewBox="0 0 620 729" fill="current" xmlns="http://www.w3.org/2000/svg">
<path d="M146.575 0.835388C139.908 1.90205 129.775 5.63537 121.108 10.1687C105.108 18.4354 90.5746 35.3687 83.6412 53.6354L80.5746 61.902L80.1746 336.969C79.7746 642.569 79.2412 620.435 88.8412 639.102C95.3746 651.769 110.708 666.969 122.708 672.835C141.241 681.902 140.708 681.902 221.241 681.902H293.908L294.308 655.635L294.575 629.369L223.508 628.969L152.308 628.569L145.908 624.569C141.641 621.902 138.441 618.569 136.308 614.702L133.241 608.835V340.969C133.241 80.3021 133.375 72.9688 135.775 68.1688C138.975 61.9021 143.241 57.9021 149.508 55.2354C153.908 53.5021 176.575 53.2354 349.908 53.2354C523.241 53.2354 545.908 53.5021 550.308 55.2354C556.841 58.0354 561.108 62.1687 564.041 68.5687C566.441 73.6354 566.575 79.6354 566.575 177.502L558.936 603.55C558.874 607.023 557.977 610.429 556.321 613.482V613.482C552.605 620.334 545.492 624.659 537.698 624.805L294.575 629.369L294.308 655.635L293.908 681.902H542.867C558.237 681.902 573.174 676.806 585.339 667.413V667.413C602.048 654.511 611.987 634.713 612.351 613.606L619.908 175.502C619.908 59.6354 619.908 61.1021 611.775 44.5687C601.508 23.5021 582.575 8.56876 558.841 2.43542C549.108 0.0354247 542.575 -0.0979329 349.375 0.0354004C239.641 0.168734 148.441 0.568722 146.575 0.835388Z" fill="current"/>
<path d="M537.148 41H161C142.222 41 127 56.2223 127 75V606C127 624.778 142.222 640 161 640H523.998C542.448 640 557.531 625.286 557.988 606.842L571.137 75.8417C571.61 56.7403 556.255 41 537.148 41Z" fill="white"/>
<path d="M199.908 201.235V227.902H349.241H498.575V201.235V174.569H349.241H199.908V201.235Z" fill="current"/>
<path d="M199.908 307.902V334.569H349.241H498.575V307.902V281.236H349.241H199.908V307.902Z" fill="current"/>
<path d="M199.908 414.569V441.235H299.241H398.575V414.569V387.902H299.241H199.908V414.569Z" fill="current"/>
<path d="M66.5746 47.8354C59.9079 48.9021 49.7746 52.6354 41.1079 57.1687C25.1079 65.4354 10.5746 82.3687 3.64123 100.635L0.574564 108.902L0.174564 383.969C-0.225436 689.569 -0.758769 667.435 8.84123 686.102C15.3746 698.769 30.7079 713.969 42.7079 719.835C61.2412 728.902 60.7079 728.902 141.241 728.902H213.908L214.308 702.635L214.575 676.369L143.508 675.969L72.3079 675.569L65.9079 671.569C61.6412 668.902 58.4412 665.569 56.3079 661.702L53.2412 655.835V387.969C53.2412 127.302 53.3746 119.969 55.7746 115.169C58.9746 108.902 63.2412 104.902 69.5079 102.235C73.9079 100.502 96.5746 100.235 269.908 100.235C443.241 100.235 465.908 100.502 470.308 102.235C476.841 105.035 481.108 109.169 484.041 115.569C486.441 120.635 486.575 126.635 486.575 224.502L478.936 650.55C478.874 654.023 477.977 657.429 476.321 660.482V660.482C472.605 667.334 465.492 671.659 457.698 671.805L214.575 676.369L214.308 702.635L213.908 728.902H462.867C478.237 728.902 493.174 723.806 505.339 714.413V714.413C522.048 701.511 531.987 681.713 532.351 660.606L539.908 222.502C539.908 106.635 539.908 108.102 531.775 91.5687C521.508 70.5021 502.575 55.5688 478.841 49.4354C469.108 47.0354 462.575 46.9021 269.375 47.0354C159.641 47.1687 68.4412 47.5687 66.5746 47.8354Z" fill="current"/>
<path d="M457.148 88H81C62.2223 88 47 103.222 47 122V653C47 671.778 62.2223 687 81 687H443.998C462.448 687 477.531 672.286 477.988 653.842L491.137 122.842C491.61 103.74 476.255 88 457.148 88Z" fill="white"/>
<path d="M119.908 248.235V274.902H269.241H418.575V248.235V221.569H269.241H119.908V248.235Z" fill="current"/>
<path d="M119.908 354.902V381.569H269.241H418.575V354.902V328.236H269.241H119.908V354.902Z" fill="current"/>
<path d="M119.908 461.569V488.235H219.241H318.575V461.569V434.902H219.241H119.908V461.569Z" fill="current"/>
</svg>
