<?xml version="1.0" standalone="no"?>
<!DOCTYPE svg PUBLIC "-//W3C//DTD SVG 20010904//EN"
 "http://www.w3.org/TR/2001/REC-SVG-20010904/DTD/svg10.dtd">
<svg version="1.0" xmlns="http://www.w3.org/2000/svg"
 width="512.000000pt" height="512.000000pt" viewBox="0 0 512.000000 512.000000"
 preserveAspectRatio="xMidYMid meet">

<g transform="translate(0.000000,512.000000) scale(0.100000,-0.100000)"
fill="current" stroke="none">
<path d="M770 5113 c-50 -8 -126 -36 -191 -70 -120 -62 -229 -189 -281 -326
l-23 -62 -3 -2063 c-3 -2292 -7 -2126 65 -2266 49 -95 164 -209 254 -253 139
-68 135 -68 739 -68 l545 0 3 197 2 197 -533 3 -534 3 -48 30 c-32 20 -56 45
-72 74 l-23 44 0 2009 c0 1955 1 2010 19 2046 24 47 56 77 103 97 33 13 203
15 1503 15 1300 0 1470 -2 1503 -15 49 -21 81 -52 103 -100 18 -38 19 -83 19
-817 l0 -778 200 0 200 0 0 793 c0 869 0 858 -61 982 -77 158 -219 270 -397
316 -73 18 -122 19 -1571 18 -823 -1 -1507 -4 -1521 -6z"/>
<path d="M1170 3610 l0 -200 1120 0 1120 0 0 200 0 200 -1120 0 -1120 0 0
-200z"/>
<path d="M1170 2810 l0 -200 1120 0 1120 0 0 200 0 200 -1120 0 -1120 0 0
-200z"/>
<path d="M3420 2019 c-875 -900 -860 -882 -914 -1019 -15 -39 -237 -992 -232
-997 1 -1 221 47 490 107 529 119 562 130 677 220 57 44 1409 1428 1409 1441
0 8 -836 832 -848 836 -4 2 -266 -263 -582 -588z m734 -118 l138 -138 -543
-557 -542 -558 -139 139 c-76 76 -137 143 -136 149 4 16 1061 1102 1073 1103
6 1 73 -61 149 -138z"/>
<path d="M1170 2010 l0 -200 745 0 745 0 0 200 0 200 -745 0 -745 0 0 -200z"/>
</g>
</svg>
